<?xml version="1.0" encoding="UTF-8"?>
<svg id="Layer_1" data-name="Layer 1" xmlns="http://www.w3.org/2000/svg" viewBox="0 0 231.33 131.66">
  <defs>
    <style>
      .cls-1 {
        fill: #939300;
      }

      .cls-1, .cls-2, .cls-3, .cls-4, .cls-5 {
        stroke-width: 0px;
      }

      .cls-2 {
        fill: #a7ac00;
      }

      .cls-3 {
        fill: #343434;
      }

      .cls-4 {
        fill: #0057b7;
      }

      .cls-5 {
        fill: #c7102e;
      }
    </style>
  </defs>
  <path class="cls-4" d="m14.51,82.87c0,6.13,0,12.26,0,18.4,0,.19.11.45-.15.56-.19.08-.31-.1-.44-.2-3.02-2.24-6.07-4.44-9.05-6.75C1.65,92.39,0,89.04,0,84.96c0-10.06.01-20.13.1-30.19.03-4.26,1.83-7.72,5.3-10.23,6.86-4.97,13.74-9.92,20.62-14.87,5.52-3.98,11.04-7.96,16.56-11.94.59-.42.59-.43,0-.87-.76-.57-1.52-1.14-2.29-1.7-3.25-2.38-3.29-6.61-.07-9.02,2.62-1.97,5.25-3.92,7.86-5.9.39-.29.64-.29,1.03,0,5.71,4.19,11.43,8.36,17.14,12.54,7.91,5.79,15.82,11.6,23.72,17.39.77.56.77.56-.02,1.15-3.37,2.52-6.73,5.05-10.1,7.56-2.29,1.71-4.73,1.7-7.01,0-3.66-2.72-7.33-5.44-11.01-8.15-2.75-2.02-6.04-2-8.77.02-11.06,8.19-22.11,16.38-33.16,24.58-3.51,2.61-5.28,6.11-5.27,10.5,0,4.23-.02,8.46-.03,12.69,0,1.46,0,2.92,0,4.37-.03,0-.06,0-.09,0Z"/>
  <path class="cls-2" d="m96.91,98.81c0,2.3,0,4.61,0,6.91,0,.37-.09.62-.4.84-10.39,7.56-20.76,15.15-31.16,22.69-4.54,3.29-10.51,3.17-15.01-.2-10.27-7.69-20.54-15.38-30.82-23.05-.35-.26-.45-.53-.45-.95.01-4.25.01-8.5,0-12.75,0-1.5.65-2.61,1.97-3.28,1.33-.67,2.63-.53,3.82.35,5.56,4.11,11.11,8.23,16.66,12.34,3.96,2.93,7.91,5.87,11.87,8.8,2.68,1.98,6.04,1.98,8.72,0,9.51-7.04,19.02-14.09,28.52-21.14,1.03-.77,2.1-1.26,3.41-.97,1.73.38,2.84,1.77,2.86,3.62.03,2.26,0,4.52,0,6.79Z"/>
  <path class="cls-5" d="m101.1,83.97c0-5.88.07-11.75-.02-17.63-.07-4.05-1.88-7.3-5.1-9.75-.62-.47-1.26-.93-1.88-1.4-.84-.64-.87-1.59-.03-2.23,3.81-2.88,7.62-5.75,11.45-8.61.83-.62,1.8-.76,2.68-.2,2.4,1.51,4.58,3.25,5.92,5.85,1.12,2.18,1.53,4.49,1.46,6.92-.05,1.75-.05,3.51-.06,5.26-.03,5.64-.06,11.29-.09,16.93-.02,2.43,0,4.86-.1,7.29-.16,3.87-1.79,7.06-4.85,9.43-2.85,2.22-5.79,4.32-8.7,6.47-.14.1-.28.33-.48.22-.16-.09-.07-.31-.07-.47-.01-2.37-.02-4.74-.02-7.1,0-3.66,0-7.31,0-10.97-.04,0-.07,0-.11,0Z"/>
  <path class="cls-3" d="m173.09,51.13c0,3.78,0,7.57,0,11.35,0,.94-.17,1.12-1.1,1.12-1.46,0-2.92,0-4.38,0-.71,0-.94-.22-1-.93-.01-.17,0-.34,0-.51,0-7.31,0-14.63,0-21.94,0-.38.01-.76-.13-1.12-.23-.6-.64-.92-1.29-.93-.65,0-1.07.32-1.29.92-.15.41-.16.83-.16,1.25,0,7.34,0,14.67,0,22.01,0,1.11-.14,1.26-1.22,1.26-1.37,0-2.75,0-4.12,0-.87,0-1.06-.2-1.06-1.09,0-7.36,0-14.71,0-22.07,0-.42,0-.85-.13-1.25-.23-.68-.68-1.03-1.36-1.02-.67.01-1.1.37-1.31,1.07-.12.41-.12.83-.12,1.26,0,7.31,0,14.63,0,21.94,0,1.01-.15,1.16-1.18,1.16-1.44,0-2.88,0-4.31,0-.71,0-.95-.24-.95-.95,0-7.53-.04-15.05.02-22.58.02-2.72,1.01-5.09,3.31-6.73,2.44-1.73,6.11-1.83,8.62-.2.49.32.79.28,1.25-.01,3.79-2.41,10.61-1.27,11.78,5.45.11.65.15,1.3.15,1.96,0,3.53,0,7.06,0,10.59Z"/>
  <path class="cls-3" d="m211.67,90.55c0,3.81,0,7.61,0,11.42,0,.93-.18,1.1-1.11,1.1-1.44,0-2.88,0-4.31,0-.78,0-1.01-.22-1.05-1.01,0-.15,0-.3,0-.44,0-7.31,0-14.63,0-21.94,0-.4,0-.8-.16-1.18-.23-.54-.63-.83-1.22-.85-.62-.02-1.05.26-1.3.82-.2.44-.2.9-.2,1.37,0,7.31,0,14.63,0,21.94,0,1.18-.13,1.31-1.3,1.31-1.33,0-2.66,0-4,0-.93,0-1.11-.19-1.11-1.11,0-7.36,0-14.71,0-22.07,0-.45,0-.89-.16-1.31-.23-.64-.7-.96-1.35-.94-.66.01-1.06.38-1.27.97-.16.44-.15.91-.15,1.38,0,7.31,0,14.63,0,21.94,0,.98-.16,1.14-1.13,1.15-1.42,0-2.83,0-4.25,0-.84,0-1.07-.21-1.07-1.03,0-7.48-.02-14.97,0-22.45,0-3.59,1.97-6.6,5.02-7.64,2.49-.85,4.91-.67,7.16.8.29.19.47.21.77,0,3.86-2.66,10.93-1.46,12.05,5.37.1.61.14,1.22.14,1.83,0,3.53,0,7.06,0,10.59Z"/>
  <path class="cls-3" d="m165.83,90.68c0,3.76,0,7.52,0,11.29,0,.89-.19,1.09-1.06,1.09-1.46,0-2.92,0-4.38,0-.92,0-1.1-.18-1.1-1.12,0-2.39-.02-4.78.01-7.17,0-.53-.14-.7-.67-.66-.69.05-1.4.04-2.09,0-.43-.02-.52.14-.52.54.02,2.41,0,4.82,0,7.23,0,1-.18,1.18-1.17,1.18-1.46,0-2.92,0-4.38,0-.76,0-1.01-.23-1.01-.96,0-7.52-.03-15.05,0-22.57.02-3.95,2.42-7.06,6.1-7.84,3.95-.84,7.65.5,9.4,4.16.59,1.22.84,2.52.84,3.86,0,3.66,0,7.31,0,10.97Zm-9.79-7.22h0c0,1.39.01,2.79,0,4.18,0,.35.08.48.45.46.76-.03,1.52-.04,2.28,0,.47.03.55-.15.55-.57-.02-2.57,0-5.15-.01-7.72,0-.27-.02-.55-.07-.82-.15-.95-.93-1.5-1.87-1.34-.78.13-1.29.75-1.3,1.69-.03,1.37,0,2.74,0,4.11Z"/>
  <path class="cls-3" d="m231.33,90.68c0,3.74,0,7.48,0,11.22,0,1-.17,1.16-1.19,1.16-1.42,0-2.83,0-4.25,0-.92,0-1.1-.18-1.1-1.12,0-2.39-.02-4.78.01-7.17,0-.52-.13-.7-.66-.67-.69.05-1.4.04-2.09,0-.43-.02-.52.14-.52.54.02,2.41,0,4.82,0,7.23,0,1-.18,1.19-1.17,1.19-1.48,0-2.96,0-4.44,0-.7,0-.95-.24-.95-.96,0-7.52-.03-15.05,0-22.57.02-3.95,2.42-7.06,6.09-7.84,3.95-.84,7.65.5,9.41,4.16.59,1.22.84,2.52.84,3.86,0,3.66,0,7.31,0,10.97Zm-9.79-7.22h0c0,1.39.01,2.79,0,4.18,0,.35.08.48.45.46.76-.03,1.52-.04,2.28,0,.46.02.55-.14.55-.57-.02-2.57,0-5.15-.01-7.72,0-.27-.02-.55-.07-.82-.15-.95-.92-1.5-1.87-1.34-.78.13-1.29.75-1.31,1.69-.03,1.37,0,2.74,0,4.11Z"/>
  <path class="cls-3" d="m130.56,90.01c0-3.42-.02-6.85,0-10.27.01-1.94.47-3.77,1.69-5.34,2.09-2.7,4.93-3.37,8.11-2.73,3.13.63,5,2.7,5.76,5.73.5,1.99.43,4.03.14,6.04-.18,1.23-.79,2.31-1.62,3.24-.2.23-.23.36,0,.6,1.6,1.57,2.25,3.52,2.25,5.73,0,1.5.01,3-.37,4.47-.88,3.43-3.87,5.79-7.4,5.81-1.95.01-3.89,0-5.84,0-1.62,0-2.73-1.13-2.74-2.76,0-3.51,0-7.02,0-10.53Zm6.56,3.79c0,.78,0,1.56,0,2.34q0,1.27,1.25,1.23c1.1-.03,1.72-.6,1.82-1.69.09-1.01.11-2.02.03-3.03-.15-2.05-.58-2.41-2.64-2.35-.35,0-.48.09-.47.46.02,1.01,0,2.02,0,3.04Zm0-12.18s0,0,0,0c0,.82,0,1.65,0,2.47,0,.15-.06.33.16.43,1.15.48,2.45-.23,2.54-1.47.09-1.3.07-2.61.04-3.92-.03-.95-.64-1.56-1.42-1.55-.74,0-1.26.61-1.3,1.58-.03.82,0,1.65,0,2.47Z"/>
  <path class="cls-3" d="m176.68,48.13c0-4.76,0-9.51,0-14.27,0-1.16.16-1.32,1.32-1.32,1.37,0,2.75,0,4.12,0,.85,0,1.08.24,1.08,1.1,0,3.64.01,7.27-.01,10.91,0,.55.11.72.69.69.94-.05.95-.01,1.1-.96.56-3.57,1.12-7.13,1.67-10.7.13-.84.36-1.04,1.21-1.04,1.44,0,2.88,0,4.31,0,.89,0,1.15.31.98,1.16-.87,4.39-1.73,8.77-2.61,13.16-.05.26-.1.45.14.67,1.43,1.32,2.04,3.05,2.16,4.93.22,3.4.07,6.8.08,10.21,0,.72-.26.94-.97.94-1.52,0-3.05,0-4.57,0-.85,0-1.05-.2-1.06-1.04,0-2.83,0-5.67,0-8.5,0-.15,0-.3,0-.44-.05-2.23-1.07-2.41-2.81-2.39-.39,0-.31.26-.31.47,0,1.63,0,3.26,0,4.88,0,1.99,0,3.97,0,5.96,0,.83-.22,1.05-1.05,1.05-1.48,0-2.96,0-4.44,0-.79,0-1.02-.22-1.03-1.02-.01-1.65,0-3.3,0-4.95,0-3.17,0-6.34,0-9.51Z"/>
  <path class="cls-3" d="m142.62,41.97c-.76,0-1.52.01-2.28,0-.68-.01-.89-.25-.93-.93-.04-.69-.07-1.39-.34-2.05-.31-.75-.79-1.02-1.54-.89-.63.11-.99.58-.99,1.35,0,.93.29,1.78.84,2.54.6.82,1.28,1.57,2,2.29,1.3,1.31,2.61,2.59,3.8,3.99,2.06,2.44,3.26,5.19,3.11,8.46-.19,4.13-3.03,7.1-7.15,7.37-1.1.07-2.2.09-3.28-.19-3.18-.8-4.86-3.02-5.68-6.03-.28-1.04-.41-2.11-.41-3.2,0-.69.26-.96.96-.96,1.5-.01,3,0,4.5,0,.72,0,1,.27,1.04.99.04.72.09,1.43.36,2.11.36.92,1.01,1.33,1.84,1.19.74-.12,1.19-.74,1.22-1.7.04-1.28-.38-2.4-1.13-3.42-1.34-1.81-2.98-3.34-4.53-4.95-1.77-1.83-3.24-3.84-3.79-6.4-.33-1.55-.33-3.11.13-4.64.84-2.78,2.82-4.26,5.6-4.77,1.56-.28,3.12-.23,4.64.28,2.56.86,4.01,2.76,4.77,5.26.32,1.06.43,2.15.49,3.25.04.71-.26,1.02-.97,1.03-.76.01-1.52,0-2.28,0Z"/>
  <path class="cls-3" d="m176.91,103.07c-2.03,0-4.06,0-6.09,0-1.82,0-2.86-1.04-2.94-2.85-.08-2.04.3-3.94,1.22-5.8,2.59-5.23,5.06-10.52,7.58-15.79.29-.61.29-.61-.41-.61-2.09,0-4.19,0-6.28,0-.93,0-1.11-.19-1.11-1.12,0-1.31,0-2.62,0-3.93,0-.7.25-.95.96-.95,3.74,0,7.49-.02,11.23,0,1.85.01,2.8,1.01,2.81,2.84,0,.11,0,.21,0,.32.18,2.06-.37,3.93-1.29,5.78-2.55,5.16-4.98,10.37-7.48,15.56-.22.45-.21.6.36.59,2.56-.03,5.12-.01,7.68-.01.84,0,1.06.22,1.06,1.04,0,1.31,0,2.62,0,3.93,0,.78-.24,1.01-1.03,1.01-2.09,0-4.19,0-6.28,0Z"/>
  <path class="cls-2" d="m44.24,72.87c-.13-.43.04-.72.38-.98,3.83-2.85,7.65-5.71,11.49-8.54,1.22-.9,2.93-.87,4.16.03,3.82,2.83,7.63,5.67,11.44,8.51.39.29.53.64.4,1.1-.69.28-1.22.81-1.81,1.24-3.15,2.32-6.3,4.65-9.46,6.95-1.44,1.05-3,1.28-4.64.45-.66-.34-1.21-.84-1.8-1.28-3.39-2.49-6.78-4.99-10.16-7.49Z"/>
  <path class="cls-3" d="m215.1,50.85c0,3.89,0,7.78,0,11.67,0,.9-.18,1.08-1.06,1.08-1.42,0-2.83,0-4.25,0-.99,0-1.18-.18-1.18-1.18,0-7.7-.01-15.39.02-23.09,0-.69-.2-.84-.83-.8-.99.05-1.99.02-2.98.01-.7,0-.91-.23-.92-.92,0-1.4,0-2.79,0-4.19,0-.64.24-.9.88-.9,4.74,0,9.48,0,14.21,0,.62,0,.89.27.9.9.02,1.4.02,2.79,0,4.19,0,.67-.26.91-.93.92-1.08.01-2.16.03-3.24,0-.53-.02-.62.17-.62.65.02,3.89,0,7.78,0,11.67Z"/>
  <path class="cls-1" d="m44.24,72.87c3.39,2.5,6.77,5,10.16,7.49.59.44,1.14.94,1.8,1.28,1.64.84,3.2.6,4.64-.45,3.17-2.3,6.31-4.63,9.46-6.95.59-.44,1.12-.96,1.81-1.24,0,2.58.02,5.16.02,7.74,0,.63-.29,1.13-.8,1.51-3.73,2.74-7.45,5.5-11.19,8.23-1.23.89-2.8.9-4.03,0-3.73-2.73-7.45-5.5-11.16-8.26-.45-.33-.73-.78-.73-1.34,0-2.66.01-5.33.02-7.99Z"/>
  <path class="cls-3" d="m228.64,48.06c0,4.8,0,9.6,0,14.4,0,.97-.18,1.15-1.14,1.15-1.46,0-2.92,0-4.38,0-.75,0-.98-.22-1-.98-.02-.74,0-1.48,0-2.22,0-8.79,0-17.59,0-26.38,0-.17,0-.34,0-.51.04-.75.27-.97,1.02-.97,1.48,0,2.96,0,4.44,0,.81,0,1.06.24,1.06,1.06,0,3.26,0,6.51,0,9.77v4.69Z"/>
  <path class="cls-5" d="m103.17,40.48c-3.26,2.44-6.49,4.86-9.72,7.28-.71.53-1.42,1.07-2.13,1.59-1.52,1.11-3.48,1.14-5.03.05-.9-.63-1.78-1.29-2.65-1.96-1.89-1.46-1.95-4.32-.06-5.77,3.37-2.58,6.79-5.1,10.19-7.65.23-.17.4-.23.66-.03,2.87,2.12,5.76,4.23,8.64,6.34.03.02.05.07.11.15Z"/>
</svg>