<?xml version="1.0" encoding="utf-8"?>
<!-- Generator: Adobe Illustrator 28.4.1, SVG Export Plug-In . SVG Version: 6.00 Build 0)  -->
<svg version="1.1" id="Layer_1" xmlns="http://www.w3.org/2000/svg" xmlns:xlink="http://www.w3.org/1999/xlink" x="0px" y="0px"
	 viewBox="0 0 1080 1080" style="enable-background:new 0 0 1080 1080;" xml:space="preserve">
<style type="text/css">
	.st0{fill:#FFFFFF;}
</style>
<g>
	<g>
		<path class="st0" d="M682.1,98.1C518,98.1,381.9,219.9,359.4,378h31.4C413,237.3,535.1,129.3,681.9,129.3
			c162.5,0,294.8,132.2,294.8,294.8s-132,294.7-294.6,294.7c-10.2,0-20.3-0.5-30.5-1.5v31.2c10,0.9,20.1,1.5,30.5,1.5
			c179.8,0,325.9-146.2,325.9-325.9C1008.1,244.3,861.8,98.1,682.1,98.1z"/>
	</g>
</g>
<g>
	<path class="st0" d="M772.2,529.6c-3.9,0-8-1.5-11-4.6l-90-90c-2.8-2.8-4.6-6.9-4.6-11.1V243c0-8.6,7-15.5,15.5-15.5
		s15.5,7,15.5,15.5v174.6l85.6,85.6c6,6,6,15.9,0,21.9C780.1,528.2,776.1,529.6,772.2,529.6L772.2,529.6z"/>
</g>
<g>
	<path class="st0" d="M819.8,185.6c-7.4-4.3-17-1.7-21.3,5.7l-2.6,4.6c-4.3,7.4-1.7,16.9,5.7,21.3c2.5,1.5,5.2,2.1,7.8,2.1
		c5.4,0,10.6-2.8,13.4-7.8l2.6-4.6C829.8,199.4,827.2,189.9,819.8,185.6z M920.5,286.5c-4.3-7.4-13.8-10-21.3-5.7l-4.6,2.6
		c-7.4,4.3-10,13.8-5.7,21.3c2.8,4.9,8.1,7.8,13.4,7.8c2.6,0,5.3-0.6,7.8-2.1l4.6-2.6C922.3,303.4,924.8,293.9,920.5,286.5z
		 M941.9,408.6h-5.3c-8.6,0-15.5,7-15.5,15.5s7,15.5,15.5,15.5h5.3c8.6,0,15.5-7,15.5-15.5S950.5,408.6,941.9,408.6z M914.9,540.4
		l-4.6-2.6c-7.4-4.3-16.9-1.7-21.3,5.7c-4.3,7.4-1.7,16.9,5.7,21.3l4.6,2.6c2.5,1.5,5.2,2.1,7.8,2.1c5.3,0,10.6-2.8,13.4-7.8
		C924.8,554.3,922.3,544.8,914.9,540.4z M469.5,283.4l-4.6-2.6c-7.4-4.3-16.9-1.7-21.3,5.7c-4.3,7.4-1.7,16.9,5.7,21.3l4.6,2.6
		c2.5,1.5,5.2,2.1,7.8,2.1c5.4,0,10.6-2.8,13.4-7.8C479.5,297.1,476.9,287.6,469.5,283.4z M825.5,641.2l-2.6-4.6
		c-4.3-7.4-13.8-10-21.3-5.7c-7.4,4.3-10,13.8-5.7,21.3l2.6,4.6c2.8,4.9,8.1,7.8,13.4,7.8c2.6,0,5.3-0.6,7.8-2.1
		C827.2,658.3,829.8,648.6,825.5,641.2z M568.4,195.9l-2.6-4.6c-4.3-7.4-13.8-10-21.3-5.7c-7.4,4.3-10,13.8-5.7,21.3l2.6,4.6
		c2.8,4.9,8.1,7.8,13.4,7.8c2.6,0,5.3-0.6,7.8-2.1C570,212.8,572.7,203.4,568.4,195.9z M682.1,663.1c-8.6,0-15.5,7-15.5,15.5v5.3
		c0,8.6,7,15.5,15.5,15.5c8.6,0,15.5-7,15.5-15.5v-5.3C697.7,670.1,690.7,663.1,682.1,663.1z M682.1,148.8c-8.6,0-15.5,7-15.5,15.5
		v5.3c0,8.6,7,15.5,15.5,15.5c8.6,0,15.5-7,15.5-15.5v-5.3C697.7,155.8,690.7,148.8,682.1,148.8z"/>
</g>
<g>
	<path class="st0" d="M546.2,891.9h-190c-2.6,0-5.3-0.1-8-0.4c-2.6-0.2-5.3-0.6-8-1.2c-2.6-0.5-5.3-1.2-7.8-2s-4.9-1.6-7.4-2.6
		c-2.6-1.1-4.9-2.2-7.3-3.5s-4.6-2.6-6.9-4.1c-2.2-1.5-4.4-3.1-6.4-4.8c-2.1-1.7-4.1-3.6-5.9-5.3c-1.8-1.8-3.6-3.8-5.3-5.9
		s-3.2-4.3-4.7-6.4c0,0,0-0.1-0.1-0.1c-1.5-2.2-2.8-4.6-4.1-6.8c-1.2-2.3-2.5-4.8-3.5-7.3s-1.8-4.9-2.7-7.4
		c-0.9-2.6-1.5-5.2-1.8-7.8c-0.5-2.7-0.9-5.3-1.2-8s-0.4-5.3-0.4-8V756c0-15,12.1-27.1,27.1-27.1s27.1,12.1,27.1,27.1v54.3
		c0,0.9,0,1.8,0.1,2.6c0.1,0.9,0.1,1.7,0.4,2.7c0.1,0.9,0.4,1.7,0.6,2.6c0.2,0.9,0.5,1.6,0.9,2.6c0.4,0.9,0.7,1.6,1.1,2.3
		c0.5,0.9,0.9,1.5,1.4,2.3c0.5,0.7,1,1.5,1.6,2.2c0.5,0.6,1.1,1.2,1.7,1.8s1.4,1.2,2,1.8c0.6,0.5,1.4,1.1,2.2,1.5
		c0.7,0.5,1.5,0.9,2.2,1.4c0.9,0.5,1.6,0.9,2.5,1.2c0.7,0.2,1.6,0.6,2.5,0.9c0.9,0.2,1.7,0.5,2.6,0.6s1.8,0.2,2.6,0.4
		c0.9,0.1,1.8,0.1,2.6,0.1H546c0.9,0,1.7,0,2.6-0.1c0.9-0.1,1.7-0.1,2.6-0.4c0.9-0.1,1.8-0.4,2.6-0.6c0.9-0.2,1.6-0.5,2.6-0.9
		c0.9-0.4,1.6-0.7,2.3-1.1c0.9-0.5,1.5-0.9,2.2-1.4s1.5-1.1,2.2-1.6s1.4-1.2,2-1.8s1.2-1.2,1.8-2c0.5-0.6,1.1-1.5,1.6-2.2
		s1-1.5,1.4-2.2c0.5-0.9,0.9-1.5,1.1-2.3c0.4-0.9,0.6-1.7,0.9-2.6c0.2-0.9,0.5-1.7,0.6-2.6c0.1-0.9,0.2-1.7,0.4-2.6
		c0.1-0.9,0.1-1.7,0.1-2.6V484.8c0-0.9,0-1.8-0.1-2.7c-0.1-0.9-0.1-1.7-0.4-2.6c-0.1-0.9-0.4-1.6-0.6-2.6l0,0
		c-0.2-0.9-0.5-1.7-0.9-2.6s-0.7-1.5-1.1-2.3c-0.4-0.7-0.9-1.5-1.4-2.2l0,0c-0.5-0.7-1.1-1.5-1.6-2.2c-0.5-0.6-1.2-1.4-1.7-1.8
		c-0.6-0.6-1.4-1.2-2-1.8c-0.6-0.5-1.4-1.1-2.2-1.5c-0.7-0.5-1.5-0.9-2.2-1.4s-1.5-0.9-2.3-1.1l0,0c-0.9-0.4-1.7-0.6-2.6-0.9
		c-0.9-0.2-1.7-0.5-2.6-0.6c-0.9-0.1-1.7-0.2-2.6-0.4c-0.9-0.1-1.7-0.1-2.6-0.1H356.2c-0.9,0-1.8,0-2.6,0.1
		c-0.9,0.1-1.7,0.1-2.6,0.4c-0.9,0.1-1.8,0.4-2.6,0.6c-0.9,0.2-1.7,0.5-2.6,0.9s-1.6,0.7-2.3,1.1c-0.9,0.5-1.6,0.9-2.3,1.4
		c-0.7,0.5-1.5,1-2.2,1.6c-0.7,0.5-1.4,1.2-2,1.8c-0.6,0.6-1.2,1.2-1.8,2c-0.5,0.6-1.1,1.5-1.6,2.2s-0.9,1.5-1.4,2.2
		c-0.5,0.9-0.9,1.5-1.1,2.3c-0.4,0.9-0.6,1.7-0.9,2.6c-0.2,0.9-0.5,1.7-0.6,2.6s-0.2,1.7-0.4,2.6c-0.1,0.9-0.1,1.7-0.1,2.6v54.3
		c0,15-12.1,27.1-27.1,27.1s-27.1-12.1-27.1-27.1V485c0-2.7,0.1-5.3,0.4-8c0.2-2.6,0.6-5.3,1.2-7.9s1.2-5.3,1.8-7.8
		c0.9-2.6,1.7-5.1,2.7-7.5c1-2.5,2.2-4.9,3.5-7.3c1.2-2.2,2.6-4.6,4.1-6.8c0,0,0-0.1,0.1-0.1c1.5-2.2,3.1-4.3,4.7-6.3
		c1.7-2.1,3.6-4.2,5.4-5.9c1.8-1.8,3.8-3.6,5.9-5.3c2.1-1.7,4.2-3.2,6.4-4.8c2.2-1.5,4.6-2.8,6.9-4.1c2.2-1.2,4.7-2.3,7.2-3.5h0.1
		c2.5-1,4.9-1.8,7.5-2.7c2.5-0.7,5.1-1.4,7.6-1.8c2.6-0.5,5.3-0.9,8-1.2c2.6-0.2,5.3-0.4,8-0.4h190.1c2.7,0,5.3,0.1,8,0.4
		c2.6,0.2,5.3,0.6,8,1.2c2.6,0.5,5.3,1.2,7.8,1.8c2.5,0.7,4.9,1.6,7.4,2.6h0.1c2.5,1,4.9,2.2,7.3,3.5c2.3,1.2,4.6,2.6,6.9,4.1
		c2.3,1.5,4.3,3.1,6.4,4.8s4.1,3.6,5.9,5.3c1.8,1.8,3.6,3.8,5.3,5.9s3.2,4.2,4.7,6.4c0,0,0,0.1,0.1,0.1c1.5,2.2,2.8,4.6,4.1,6.8
		c1.2,2.3,2.5,4.8,3.5,7.3s1.8,4.9,2.6,7.4v0.1c0.7,2.6,1.5,5.2,1.8,7.6c0.5,2.6,0.9,5.3,1.2,7.9c0.2,2.6,0.4,5.3,0.4,8v325.9
		c0,2.6-0.1,5.3-0.4,8c-0.2,2.6-0.6,5.3-1.2,7.9c-0.5,2.6-1.2,5.3-1.8,7.8c-0.9,2.6-1.7,5.1-2.7,7.5c-1,2.5-2.2,4.9-3.5,7.3
		c-1.2,2.3-2.6,4.6-4.1,6.8c0,0,0,0.1-0.1,0.1c-1.5,2.2-3.1,4.3-4.7,6.3c-1.7,2.1-3.6,4.1-5.4,5.9c-1.8,1.8-3.8,3.6-5.9,5.3
		c-2.1,1.7-4.2,3.2-6.4,4.8c-2.2,1.5-4.6,2.8-6.9,4.1c-2.2,1.2-4.7,2.3-7.2,3.5h-0.1c-2.5,1-4.9,1.8-7.4,2.7c-2.6,0.9-5.3,1.5-7.8,2
		c-2.6,0.5-5.3,0.9-7.9,1.2C551.6,891.7,548.9,891.9,546.2,891.9z"/>
</g>
<g>
	<g>
		<path class="st0" d="M135.1,674.7H461c11,0,21-6.7,25-16.8c4.2-10.1,1.8-21.8-5.9-29.6l-81.5-81.5c-10.6-10.6-27.7-10.6-38.3,0
			c-10.6,10.6-10.6,27.7,0,38.3l35.1,35.1H135.1c-15,0-27.1,12.1-27.1,27.1C107.8,662.6,120,674.7,135.1,674.7z"/>
	</g>
	<g>
		<path class="st0" d="M379.5,756.2c7,0,13.9-2.6,19.2-8l81.5-81.5c10.6-10.6,10.6-27.7,0-38.3s-27.7-10.6-38.3,0l-81.5,81.5
			c-10.6,10.6-10.6,27.7,0,38.3C365.5,753.4,372.4,756.2,379.5,756.2z"/>
	</g>
</g>
</svg>
