<?xml version="1.0" encoding="utf-8"?>
<!-- Generator: Adobe Illustrator 28.4.1, SVG Export Plug-In . SVG Version: 6.00 Build 0)  -->
<svg version="1.1" id="Layer_1" xmlns="http://www.w3.org/2000/svg" xmlns:xlink="http://www.w3.org/1999/xlink" x="0px" y="0px"
	 viewBox="0 0 1080 1080" style="enable-background:new 0 0 1080 1080;" xml:space="preserve">
<style type="text/css">
	.st0{fill:#FFFFFF;}
</style>
<g>
	<g>
		<path class="st0" d="M677.4,108.1c-159.9,0-292.7,118.7-314.5,272.8h30.7c21.6-137.2,140.7-242.4,283.8-242.4
			c158.4,0,287.4,128.8,287.4,287.4S835.9,713.2,677.4,713.2c-10,0-19.8-0.5-29.6-1.5v30.5c9.7,0.9,19.6,1.4,29.6,1.4
			c175.2,0,317.7-142.5,317.7-317.7C995.1,250.8,852.7,108.1,677.4,108.1z"/>
	</g>
</g>
<g>
	<path class="st0" d="M765.2,528.8c-3.8,0-7.8-1.5-10.7-4.4l-87.8-87.8c-2.8-2.8-4.4-6.7-4.4-10.7V249.4c0-8.4,6.8-15.2,15.2-15.2
		s15.2,6.8,15.2,15.2v170.1l83.3,83.3c5.9,5.9,5.9,15.5,0,21.5C772.9,527.4,769.1,528.8,765.2,528.8L765.2,528.8z"/>
</g>
<g>
	<path class="st0" d="M811.6,193.4c-7.3-4.2-16.6-1.7-20.7,5.5l-2.6,4.4c-4.2,7.3-1.7,16.5,5.5,20.7c2.3,1.4,5.1,2,7.6,2
		c5.3,0,10.4-2.7,13.2-7.6l2.6-4.4C821.4,207,818.9,197.6,811.6,193.4z M909.8,291.7c-4.2-7.3-13.4-9.7-20.7-5.5l-4.4,2.6
		c-7.3,4.2-9.7,13.4-5.5,20.7c2.8,4.8,7.9,7.6,13.2,7.6c2.6,0,5.2-0.6,7.6-2l4.4-2.6C911.6,308.2,914.1,299,909.8,291.7z
		 M930.6,410.8h-5.2c-8.4,0-15.2,6.8-15.2,15.2s6.8,15.2,15.2,15.2h5.2c8.4,0,15.2-6.8,15.2-15.2S939,410.8,930.6,410.8z
		 M904.2,539.3l-4.4-2.6c-7.3-4.2-16.5-1.7-20.7,5.5c-4.2,7.3-1.7,16.5,5.5,20.7l4.4,2.6c2.3,1.4,5.1,2,7.6,2
		c5.2,0,10.4-2.7,13.2-7.6C914.1,552.8,911.6,543.6,904.2,539.3z M470.3,288.7l-4.4-2.6c-7.3-4.2-16.5-1.7-20.7,5.5
		c-4.2,7.3-1.7,16.5,5.5,20.7l4.4,2.6c2.3,1.4,5.1,2,7.6,2c5.3,0,10.4-2.7,13.2-7.6C479.9,302.2,477.4,292.9,470.3,288.7z
		 M817.2,637.5l-2.6-4.4c-4.2-7.3-13.4-9.7-20.7-5.5s-9.7,13.4-5.5,20.7l2.6,4.4c2.8,4.8,7.9,7.6,13.2,7.6c2.6,0,5.2-0.6,7.6-2
		C818.9,654,821.4,644.8,817.2,637.5z M566.6,203.4L564,199c-4.2-7.3-13.4-9.7-20.7-5.5s-9.7,13.4-5.5,20.7l2.6,4.4
		c2.8,4.8,7.9,7.6,13.2,7.6c2.6,0,5.2-0.6,7.6-2C568.3,219.9,570.7,210.7,566.6,203.4z M677.4,658.8c-8.4,0-15.2,6.8-15.2,15.2v5.2
		c0,8.4,6.8,15.2,15.2,15.2s15.2-6.8,15.2-15.2V674C692.6,665.6,685.8,658.8,677.4,658.8z M677.4,157.6c-8.4,0-15.2,6.8-15.2,15.2
		v5.2c0,8.4,6.8,15.2,15.2,15.2s15.2-6.8,15.2-15.2v-5.2C692.6,164.3,685.8,157.6,677.4,157.6z"/>
</g>
<g>
	<path class="st0" d="M545,881.9H359.8c-2.6,0-5.2-0.1-7.8-0.4c-2.6-0.2-5.2-0.6-7.8-1.1c-2.5-0.5-5.2-1.1-7.6-2
		c-2.3-0.7-4.8-1.6-7.3-2.6c-2.5-1.1-4.8-2.1-7-3.3c-2.3-1.2-4.4-2.6-6.7-3.9c-2.2-1.5-4.3-3-6.3-4.7s-3.9-3.5-5.8-5.2
		c-1.7-1.7-3.6-3.7-5.2-5.8s-3.2-4.2-4.6-6.3c0,0,0-0.1-0.1-0.1c-1.4-2.2-2.7-4.4-3.9-6.7c-1.2-2.3-2.3-4.7-3.3-7s-1.8-4.8-2.6-7.3
		c-0.7-2.6-1.4-5.1-1.8-7.6c-0.5-2.6-0.9-5.2-1.1-7.8s-0.4-5.2-0.4-7.8v-52.9c0-14.7,11.8-26.5,26.5-26.5s26.5,11.8,26.5,26.5v52.9
		c0,0.9,0,1.7,0.1,2.6c0.1,0.9,0.1,1.7,0.4,2.6c0.1,0.7,0.4,1.7,0.6,2.5c0.2,0.7,0.5,1.6,0.9,2.5c0.4,0.7,0.7,1.6,1.1,2.3
		c0.5,0.7,0.9,1.5,1.4,2.3c0.5,0.7,1,1.4,1.6,2.1c0.5,0.6,1.1,1.2,1.7,1.8s1.4,1.2,2,1.7s1.4,1.1,2.1,1.5c0.7,0.5,1.4,0.9,2.2,1.4
		c0.7,0.5,1.6,0.7,2.3,1.1c0.7,0.2,1.6,0.6,2.3,0.9c0.9,0.2,1.7,0.5,2.6,0.6s1.7,0.2,2.6,0.4c0.9,0.1,1.7,0.1,2.6,0.1h185
		c0.9,0,1.7,0,2.6-0.1c0.9-0.1,1.7-0.1,2.6-0.4c0.9-0.2,1.7-0.4,2.6-0.6c0.9-0.2,1.6-0.5,2.5-0.9c0.7-0.4,1.6-0.7,2.3-1.1
		c0.7-0.5,1.5-0.9,2.2-1.4s1.4-1.1,2.1-1.6c0.7-0.5,1.4-1.1,2-1.7c0.6-0.6,1.2-1.2,1.7-2c0.5-0.6,1.1-1.4,1.6-2.1
		c0.5-0.7,1-1.5,1.4-2.2c0.5-0.7,0.7-1.5,1.1-2.3c0.4-0.7,0.6-1.7,0.9-2.5s0.5-1.7,0.6-2.5c0.1-0.7,0.2-1.7,0.4-2.6
		c0.1-0.7,0.1-1.7,0.1-2.6V485c0-0.9,0-1.7-0.1-2.6c-0.1-0.7-0.1-1.7-0.4-2.6c-0.1-0.7-0.4-1.6-0.6-2.5l0,0
		c-0.2-0.9-0.5-1.7-0.9-2.6c-0.4-0.7-0.7-1.5-1.1-2.3c-0.4-0.7-0.7-1.5-1.4-2.2l0,0c-0.5-0.7-1.1-1.5-1.6-2.1s-1.1-1.4-1.7-1.8
		c-0.6-0.6-1.4-1.2-2-1.7s-1.4-1.1-2.1-1.5c-0.7-0.5-1.4-0.9-2.2-1.4c-0.7-0.5-1.5-0.7-2.3-1.1l0,0c-0.7-0.4-1.7-0.6-2.5-0.9
		c-0.9-0.2-1.7-0.5-2.6-0.6c-0.7-0.1-1.7-0.2-2.6-0.4c-0.9-0.1-1.7-0.1-2.6-0.1H359.8c-0.9,0-1.7,0-2.6,0.1s-1.7,0.1-2.6,0.4
		c-0.9,0.2-1.7,0.4-2.6,0.6s-1.7,0.5-2.5,0.9c-0.7,0.4-1.6,0.7-2.3,1.1c-0.7,0.5-1.6,0.9-2.3,1.4c-0.7,0.5-1.4,1-2.1,1.6
		c-0.7,0.5-1.4,1.1-2,1.7s-1.2,1.2-1.7,2c-0.5,0.6-1.1,1.4-1.6,2.1s-0.9,1.5-1.4,2.2s-0.7,1.5-1.1,2.3c-0.4,0.7-0.6,1.7-0.9,2.5
		c-0.2,0.7-0.5,1.7-0.6,2.6c-0.1,0.7-0.2,1.7-0.4,2.6c-0.1,0.9-0.1,1.7-0.1,2.6v52.9c0,14.7-11.8,26.5-26.5,26.5
		S280,552.8,280,538.2v-53c0-2.6,0.1-5.2,0.4-7.8c0.2-2.6,0.6-5.2,1.1-7.6c0.5-2.6,1.1-5.2,1.8-7.6c0.7-2.6,1.7-4.9,2.6-7.3
		c1-2.3,2.1-4.8,3.3-7c1.2-2.2,2.6-4.4,3.9-6.7c0,0,0-0.1,0.1-0.1c1.4-2.1,3-4.2,4.6-6.2c1.7-2,3.5-4.1,5.3-5.8
		c1.7-1.7,3.7-3.6,5.8-5.2c2.1-1.6,4.1-3.2,6.3-4.7c2.1-1.4,4.4-2.8,6.7-3.9c2.2-1.1,4.6-2.3,7-3.3h0.1c2.3-1,4.8-1.8,7.3-2.6
		c2.3-0.7,4.9-1.4,7.5-1.8c2.6-0.5,5.2-0.9,7.8-1.1c2.6-0.2,5.2-0.4,7.8-0.4H545c2.6,0,5.2,0.1,7.8,0.4c2.6,0.2,5.2,0.6,7.8,1.1
		s5.2,1.1,7.6,1.8c2.3,0.7,4.8,1.6,7.3,2.6h0.1c2.3,1,4.8,2.1,7,3.3c2.3,1.2,4.4,2.6,6.7,3.9c2.2,1.4,4.2,3,6.3,4.7
		c2,1.7,3.9,3.5,5.8,5.2c1.7,1.7,3.6,3.7,5.2,5.8c1.7,2,3.2,4.1,4.6,6.3c0,0,0,0.1,0.1,0.1c1.4,2.1,2.7,4.4,3.9,6.7
		c1.2,2.3,2.3,4.7,3.3,7s1.8,4.8,2.6,7.3v0.1c0.7,2.5,1.4,5.1,1.8,7.5c0.5,2.6,0.9,5.2,1.1,7.6c0.2,2.6,0.4,5.2,0.4,7.8v317.6
		c0,2.6-0.1,5.2-0.4,7.8c-0.2,2.6-0.6,5.2-1.1,7.6c-0.5,2.6-1.1,5.2-1.8,7.6s-1.7,4.9-2.6,7.3c-1,2.3-2.1,4.8-3.3,7
		c-1.2,2.3-2.6,4.4-3.9,6.7c0,0,0,0.1-0.1,0.1c-1.4,2.1-3,4.2-4.6,6.2c-1.7,2-3.5,3.9-5.3,5.8c-1.7,1.7-3.7,3.6-5.8,5.2
		c-2,1.7-4.1,3.2-6.3,4.7c-2.1,1.4-4.4,2.8-6.7,3.9c-2.2,1.2-4.6,2.3-7,3.3h-0.1c-2.3,1-4.8,1.8-7.3,2.6c-2.6,0.7-5.2,1.4-7.6,2
		c-2.5,0.5-5.2,0.9-7.6,1.1C550.3,881.6,547.6,881.9,545,881.9z"/>
</g>
<g>
	<path class="st0" d="M439.2,670.1H121.6c-10.7,0-20.3-6.4-24.4-16.3s-1.8-21.2,5.8-28.8l79.4-79.4c10.4-10.4,27.1-10.4,37.4,0
		c10.2,10.4,10.4,27.1,0,37.4l-34.3,34.3h253.7c14.7,0,26.5,11.8,26.5,26.5S453.7,670.1,439.2,670.1z"/>
</g>
<g>
	<path class="st0" d="M201,749.5c-6.8,0-13.6-2.6-18.7-7.8l-79.4-79.4c-10.4-10.4-10.4-27.1,0-37.4c10.4-10.4,27.1-10.4,37.4,0
		l79.4,79.4c10.4,10.4,10.4,27.1,0,37.4C214.6,746.9,207.8,749.5,201,749.5z"/>
</g>
</svg>
